<?xml version="1.0" encoding="utf-8"?>
<!-- Generator: Adobe Illustrator 24.1.0, SVG Export Plug-In . SVG Version: 6.00 Build 0)  -->
<svg version="1.1" id="Layer_1" xmlns="http://www.w3.org/2000/svg" xmlns:xlink="http://www.w3.org/1999/xlink" x="0px" y="0px"
	 viewBox="0 0 1366 768" style="enable-background:new 0 0 1366 768;" xml:space="preserve">
<g>
	<path d="M406.77,409.3c9.34,0,13.57,3.95,13.57,10.57c0,5.12-3.06,9.01-7.68,9.96v0.11c2.95,0.89,4.17,2.56,5.9,7.4l4.17,11.57
		h-3.95L415,437.89c-1.72-4.95-3.67-6.45-8.06-6.45h-8.18v17.46h-3.61v-39.6H406.77z M398.76,428.16H407c6.73,0,9.68-3.56,9.62-8.23
		c0-5.01-3.56-7.34-9.9-7.34h-7.95V428.16z"/>
	<path d="M437.03,412.58v14.35H457v3.28h-19.97v15.41h21.69v3.28h-25.31v-39.6h24.64v3.28H437.03z"/>
	<path d="M493.98,421.59h-3.67c0-6.73-3.67-9.73-10.12-9.73c-5.56,0-8.73,2.73-8.73,7.17c0,4.73,3.39,6.12,10.01,7.73
		c7.51,1.84,13.24,3.73,13.24,11.57c0,6.9-5.23,11.29-13.52,11.29c-8.95,0-14.18-4.73-14.18-13.9h3.62c0,7.4,4.17,10.57,10.57,10.57
		c6.45,0,9.84-2.89,9.84-7.9c0-4.89-3.62-6.23-10.46-7.95c-7.62-1.89-12.79-3.78-12.79-11.35c0-6.17,4.62-10.51,12.4-10.51
		C489.36,408.58,493.98,413.03,493.98,421.59z"/>
	<path d="M516.9,412.58v36.32h-3.62v-36.32h-14.07v-3.28h31.81v3.28H516.9z"/>
	<path d="M567.84,412.58v36.32h-3.62v-36.32h-14.07v-3.28h31.81v3.28H567.84z"/>
	<path d="M614.45,448.9v-18.91h-22.19v18.91h-3.61v-39.6h3.61v17.41h22.19V409.3h3.61v39.6H614.45z"/>
	<path d="M634.75,412.58v14.35h19.97v3.28h-19.97v15.41h21.69v3.28h-25.31v-39.6h24.64v3.28H634.75z"/>
	<path d="M717.23,448.9v-20.3c0-5.12,0-10.23,0.06-15.35h-0.11c-2.06,5.23-4,10.29-6.01,15.46l-7.9,20.19h-4.23l-7.84-20.19
		c-2-5.17-4-10.23-6.01-15.46h-0.11c0.06,5.12,0.06,10.23,0.06,15.35v20.3h-3.62v-39.6h5.84l7.84,20.24l5.9,15.46h0.11
		c1.95-5.12,4-10.4,5.95-15.46L715,409.3h5.84v39.6H717.23z"/>
	<path d="M733.91,448.9v-39.6h3.62v39.6H733.91z"/>
	<path d="M775.29,448.9L765,431.33c-3.67-6.23-7.17-12.35-10.73-18.41h-0.11c0,6.62,0.06,13.18,0.06,19.8v16.19h-3.62v-39.6h5.51
		l10.29,17.57c3.67,6.23,7.17,12.35,10.73,18.41h0.11c-0.06-6.62-0.06-13.18-0.06-19.8V409.3h3.62v39.6H775.29z"/>
	<path d="M805.43,409.3c12.9,0,20.24,7.12,20.24,19.8c0,12.68-7.34,19.8-20.24,19.8h-11.57v-39.6H805.43z M797.48,445.62h7.95
		c10.57,0,16.41-5.9,16.41-16.52s-5.84-16.52-16.41-16.52h-7.95V445.62z"/>
</g>
</svg>
