<svg id="Layer_1" data-name="Layer 1" xmlns="http://www.w3.org/2000/svg" viewBox="0 0 133.31 60.62"><path d="M18.69,32.2V47.27H16.91V32.2L.17,3.34H2.06L17.8,30.53,34.32,3.34h1.83Z"/><path d="M46.72,47.77c-9.29,0-14.46-4.56-14.46-15.85,0-8.62,4-15.79,14.4-15.79,10.63,0,14.35,6,14.35,15.79C61,42.16,56,47.77,46.72,47.77Zm-.11-30.14c-9.24,0-12.74,6.12-12.74,14.29,0,9.9,4.06,14.41,12.85,14.41,8.45,0,12.68-4.95,12.68-14.41C59.4,23.14,56.45,17.63,46.61,17.63Z"/><path d="M91.49,47.27H89.93l-.11-4.56c-2.39,4.12-7.45,5-11.46,5-7.23,0-10.73-3.12-10.73-8.07,0-22.74-.06-23-.17-23h1.73v22.2c0,5.28,3.61,7.39,9.45,7.39,6.84,0,11.18-3.17,11.18-7.78V16.68h1.56V41.6C91.38,45.77,91.43,46.88,91.49,47.27Z"/><path d="M118.24,18.46a23.38,23.38,0,0,0-6.06-.72,10.58,10.58,0,0,0-10.74,11V47.27H99.89V16.68h1.61v6.84c1.06-4.22,5.28-7.39,10.68-7.39a21.49,21.49,0,0,1,6.06.61Z"/></svg>