<svg id="Layer_1" data-name="Layer 1" xmlns="http://www.w3.org/2000/svg" viewBox="0 0 124.3 60.62"><path d="M40.66,47.27V4.56L25.14,47.27H22.69L7.51,4.56V47.27H5.84V3.34H8.68L24,46.11,39.49,3.34h2.84V47.27Z"/><path d="M52.5,11.73V6.67h2v5.06ZM53,47.27a4.76,4.76,0,0,1-.28-1.89V16.68h1.56V45.1a6.27,6.27,0,0,0,.28,2.17Z"/><path d="M87.15,47.27H85.71c-.23,0-.23-.22-.23-21.63,0-5.62-3.28-7.95-9.51-7.95-5.45,0-11.06,2.28-11.06,8.67V47.27H63.35V16.68h1.5v5.45c1.5-4.56,6.78-6,11.4-6,7.9,0,10.85,3.95,10.85,9.17C87.1,45.94,87.1,47.22,87.15,47.27Z"/><path d="M118.46,22.08V3.34H120V44.83c0,1.05.11,2.44.11,2.44h-1.67l-.11-5.72c-1.44,3.33-4.39,6.17-11.68,6.17-9.06,0-13.34-4.84-13.34-15.74,0-11.18,5.61-15.8,13.57-15.8C112.79,16.18,116.85,18.24,118.46,22.08ZM94.88,32c0,10,3.78,14.35,11.85,14.35,4.5,0,8.45-1.28,10.18-4.78,1-2.12,1.55-5,1.55-9.29,0-3.56.12-7-1-9.29-1.83-3.84-6.34-5.28-10.34-5.28C99.72,17.69,94.88,21.91,94.88,32Z"/></svg>