<svg id="Layer_1" data-name="Layer 1" xmlns="http://www.w3.org/2000/svg" viewBox="0 0 1366 768"><path d="M406.77,409.3c9.35,0,13.57,3.95,13.57,10.57,0,5.12-3.06,9-7.67,10v.11c2.95.89,4.17,2.56,5.89,7.39l4.18,11.57h-3.95l-3.79-11c-1.72-4.95-3.67-6.45-8.06-6.45h-8.18V448.9h-3.61V409.3Zm-8,18.86H407c6.73,0,9.67-3.56,9.62-8.23,0-5-3.56-7.35-9.9-7.35h-8Z"/><path d="M437,412.58v14.35h20v3.28H437v15.41h21.69v3.28H433.41V409.3h24.64v3.28Z"/><path d="M494,421.59h-3.67c0-6.73-3.67-9.73-10.12-9.73-5.56,0-8.73,2.73-8.73,7.18,0,4.72,3.39,6.11,10,7.73,7.51,1.83,13.23,3.72,13.23,11.56,0,6.9-5.22,11.29-13.51,11.29-9,0-14.18-4.72-14.18-13.9h3.61c0,7.4,4.17,10.57,10.57,10.57s9.84-2.89,9.84-7.9-3.61-6.23-10.45-7.95c-7.62-1.89-12.8-3.78-12.8-11.35,0-6.17,4.62-10.51,12.41-10.51C489.36,408.58,494,413,494,421.59Z"/><path d="M516.9,412.58V448.9h-3.62V412.58H499.21V409.3H531v3.28Z"/><path d="M567.84,412.58V448.9h-3.62V412.58H550.15V409.3H582v3.28Z"/><path d="M614.45,448.9V430H592.26V448.9h-3.62V409.3h3.62v17.41h22.19V409.3h3.61v39.6Z"/><path d="M634.75,412.58v14.35h20v3.28h-20v15.41h21.69v3.28H631.13V409.3h24.64v3.28Z"/><path d="M717.23,448.9V428.6c0-5.12,0-10.23,0-15.35h-.11c-2.06,5.23-4,10.29-6,15.46l-7.89,20.19H699l-7.84-20.19c-2-5.17-4-10.23-6-15.46h-.11c0,5.12,0,10.23,0,15.35v20.3h-3.61V409.3h5.84l7.84,20.25L701.1,445h.11c1.95-5.12,4-10.4,5.95-15.46L715,409.3h5.84v39.6Z"/><path d="M733.91,448.9V409.3h3.62v39.6Z"/><path d="M775.29,448.9,765,431.33c-3.67-6.23-7.17-12.35-10.73-18.41h-.11c0,6.62.05,13.18.05,19.8V448.9H750.6V409.3h5.5l10.29,17.58c3.67,6.23,7.18,12.34,10.74,18.41h.11c-.06-6.62-.06-13.18-.06-19.8V409.3h3.62v39.6Z"/><path d="M805.43,409.3c12.91,0,20.25,7.12,20.25,19.8s-7.34,19.8-20.25,19.8H793.87V409.3Zm-7.95,36.32h7.95c10.57,0,16.41-5.9,16.41-16.52s-5.84-16.52-16.41-16.52h-7.95Z"/></svg>