<svg id="Layer_1" data-name="Layer 1" xmlns="http://www.w3.org/2000/svg" viewBox="0 0 243 204"><path d="M62.68,116.36c.88,3.37,3.32,5.38,7.45,5.38,4.59,0,6.42-2.06,6.42-4.92s-1.32-4.34-7.16-5.75c-7.58-1.83-9.31-4.13-9.31-7.88,0-3.91,2.91-7.63,9.63-7.63s9.72,4,10.13,7.94H76.19c-.46-2.1-2.09-4.83-6.64-4.83s-5.73,2.17-5.73,4.22c0,2.35,1.26,3.53,6.61,4.82,8.16,2,10,4.64,10,8.82,0,5-4,8.35-10.4,8.35-6.77,0-10.34-3.5-11.09-8.52Z"/><path d="M108.25,115.83c-1.27,4.88-4.52,9-11.18,9-7.32,0-12.21-5.36-12.21-14.53,0-7.78,4.27-14.79,12.55-14.79,7.55,0,10.4,5.36,10.84,9.14h-3.74c-.77-3.07-2.74-5.87-7.17-5.87-5.49,0-8.59,4.68-8.59,11.38,0,6.53,2.94,11.4,8.35,11.4,3.82,0,6.09-2,7.4-5.78Z"/><path d="M114.33,103.83c0-4.34,0-6.44,0-7.61h3.65c.07.85.13,2.82.13,6a10.26,10.26,0,0,1,9.6-6.68V99.4c-5.79.29-9.6,3.85-9.6,10.7v14.11h-3.73Z"/><path d="M155.82,110.16c0,7.91-4.45,14.72-12.89,14.72-7.77,0-12.54-6.21-12.54-14.65,0-8.12,4.58-14.67,12.84-14.67C150.82,95.56,155.82,101.38,155.82,110.16Zm-21.54.06c0,6.42,3.34,11.38,8.86,11.38s8.8-4.64,8.8-11.37c0-6.47-3.13-11.4-8.91-11.4S134.28,103.65,134.28,110.22Z"/><path d="M162.33,124.21V83.29h3.73v40.92Z"/><path d="M174.73,124.21V83.29h3.73v40.92Z"/></svg>