<svg id="Layer_1" data-name="Layer 1" xmlns="http://www.w3.org/2000/svg" viewBox="0 0 134.48 97.19"><path d="M26,25.42,36.21,47.27H34.15l-10-21.58H7.51V47.27H5.84V3.34H22.58c8,0,10.29,4.45,10.29,11.23C32.87,20.52,30.53,24.58,26,25.42ZM22.14,4.84H7.51V24.19H23.19c6.51,0,8-4,8-9.68C31.15,6.78,27.59,4.84,22.14,4.84Z"/><path d="M54.84,47.77c-8.29,0-14.24-4.11-14.24-15.9,0-10.51,4.67-15.74,13.79-15.74,9.4,0,13.8,4.78,13.8,14.46v1.95h-26c0,9.73,5,13.79,12.73,13.79s10.85-3.39,11.52-7.95H68C67.24,44.33,63,47.77,54.84,47.77Zm-.5-30.14c-8.18,0-12.18,5-12.18,13.51H66.41C66.69,21.47,62.46,17.63,54.34,17.63Z"/><path d="M86,47.72c-10.4,0-12.79-2.23-13.18-8.9h1.56c.33,5.56,1.89,7.45,11.68,7.45,7.67,0,10.46-2.44,10.46-6.78,0-5.18-5.4-6.29-11-7.4-6-1.22-12.13-2.45-12.13-8.68,0-4.22,3.51-7.34,11.41-7.34,8.84,0,12.18,2.56,12.18,9.12H95.44c0-5.39-2.34-7.62-10.62-7.62-7.4,0-9.79,2.51-9.79,6,0,4.84,5.34,5.9,10.84,7,6,1.17,12.24,2.45,12.24,8.79C98.11,44.88,94.6,47.72,86,47.72Z"/><path d="M108.17,18.13V40.54c0,4.68,1.73,5.68,5.73,5.68a37.73,37.73,0,0,0,4.68-.34v1.34a27.51,27.51,0,0,1-5,.44c-4.73,0-7-1.61-7-6.56v-23h-5.89V16.68h5.67c.28,0,.28-6.39.28-6.39l1.55-.06v6.45h10.68v1.45Z"/></svg>